<?xml version="1.0" encoding="UTF-8"?>
<svg width="482px" height="512px" viewBox="0 0 482 512" version="1.1" xmlns="http://www.w3.org/2000/svg" xmlns:xlink="http://www.w3.org/1999/xlink">
    <!-- Generator: Sketch 50.2 (55047) - http://www.bohemiancoding.com/sketch -->
    <title>ramen (1)</title>
    <desc>Created with Sketch.</desc>
    <defs></defs>
    <g id="Page-1" stroke="none" stroke-width="1" fill="none" fill-rule="evenodd">
        <g id="ramen-(1)" fill-rule="nonzero">
            <path d="M430.208,222.138 C436.957,228.888 432.863,242.806 436.3,251.109 C439.863,259.716 452.481,266.733 452.479,275.905 C452.482,285.072 439.86,292.094 436.3,300.701 C432.864,309.003 436.958,322.921 430.209,329.67 C423.458,336.421 409.544,332.325 401.239,335.761 C392.631,339.322 385.61,351.943 376.441,351.939 C367.268,351.941 360.253,339.322 351.646,335.76 C343.345,332.322 329.426,336.418 322.677,329.668 C315.927,322.918 320.021,309 316.584,300.697 C313.023,292.089 300.403,285.075 300.406,275.902 C300.403,266.733 313.023,259.712 316.585,251.106 C320.021,242.802 315.924,228.887 322.675,222.136 C329.426,215.385 343.34,219.481 351.645,216.046 C360.254,212.485 367.275,199.865 376.44,199.866 C385.612,199.865 392.631,212.482 401.236,216.044 C409.54,219.483 423.458,215.388 430.208,222.138 Z" id="Shape" fill="#FFB792"></path>
            <circle id="Oval" fill="#F9D9CA" cx="376.442" cy="275.905" r="42.822"></circle>
            <circle id="Oval" fill="#FFFFFF" cx="376.442" cy="275.905" r="15.99"></circle>
            <path d="M276.736,442.545 C243.259,442.545 216.119,415.406 216.119,381.928 L216.119,257.057 C216.119,223.578 243.258,196.44 276.736,196.44 C310.216,196.44 337.355,223.578 337.355,257.057 L337.353,381.926 C337.352,415.405 310.214,442.545 276.736,442.545 Z" id="Shape" fill="#FFF4BD"></path>
            <path d="M240.367,257.057 C240.367,237.001 256.682,220.686 276.737,220.686 C296.793,220.686 313.108,237.001 313.108,257.057 L313.108,381.926 C313.108,401.98 296.793,418.297 276.737,418.297 C256.683,418.297 240.367,401.981 240.367,381.926 L240.367,257.057 Z" id="Shape" fill="#FFE783"></path>
            <path d="M264.614,257.057 C264.614,250.372 270.051,244.933 276.737,244.933 C283.421,244.933 288.862,250.372 288.862,257.057 L288.862,381.926 C288.862,388.61 283.422,394.049 276.737,394.049 C270.052,394.049 264.614,388.609 264.614,381.926 L264.614,257.057 Z" id="Shape" fill="#FFF4BD"></path>
            <path d="M169.623,221.878 C169.623,235.926 158.235,247.314 144.185,247.314 C130.137,247.314 118.749,235.926 118.749,221.878 C118.749,207.829 130.136,196.441 144.185,196.441 C158.234,196.441 169.623,207.829 169.623,221.878 Z" id="Shape" fill="#B0CE6F"></path>
            <path d="M150.018,308.462 L150.018,271.682 C150.018,238.205 122.878,211.065 89.401,211.065 C55.921,211.065 28.783,238.204 28.783,271.682 L28.783,308.462 L150.018,308.462 Z" id="Shape" fill="#FFF4BD"></path>
            <path d="M125.771,308.462 L125.771,271.682 C125.771,251.627 109.455,235.311 89.401,235.311 C69.346,235.311 53.029,251.627 53.029,271.682 L53.029,308.462 L125.771,308.462 Z" id="Shape" fill="#FFE783"></path>
            <g id="Group" transform="translate(77.000000, 219.000000)" fill="#FFF4BD">
                <path d="M24.524,89.462 L24.524,52.682 C24.524,45.997 19.085,40.558 12.401,40.558 C5.715,40.558 0.276,45.998 0.276,52.682 L0.276,89.462 L24.524,89.462 Z" id="Shape"></path>
                <path d="M109.175,247.024 C75.696,247.024 48.557,219.886 48.557,186.407 L48.557,61.537 C48.557,28.06 75.696,0.92 109.175,0.92 C142.652,0.92 169.791,28.059 169.791,61.537 L169.791,186.408 C169.791,219.886 142.653,247.024 109.175,247.024 Z" id="Shape"></path>
            </g>
            <path d="M149.805,280.537 C149.805,260.483 166.121,244.166 186.176,244.166 C206.231,244.166 222.545,260.483 222.545,280.537 L222.545,405.408 C222.545,425.463 206.231,441.779 186.176,441.779 C166.121,441.779 149.805,425.463 149.805,405.408 L149.805,280.537 Z" id="Shape" fill="#FFE783"></path>
            <path d="M174.051,280.537 C174.051,273.854 179.49,268.414 186.176,268.414 C192.859,268.414 198.298,273.854 198.298,280.537 L198.298,405.408 C198.298,412.093 192.86,417.531 186.176,417.531 C179.491,417.531 174.051,412.093 174.051,405.408 L174.051,280.537 Z" id="Shape" fill="#FFF4BD"></path>
            <path d="M73.219,279.601 C73.219,293.649 61.831,305.038 47.781,305.038 C33.734,305.038 22.344,293.649 22.344,279.601 C22.344,265.553 33.733,254.164 47.781,254.164 C61.829,254.164 73.219,265.553 73.219,279.601 Z" id="Shape" fill="#FF8150"></path>
            <path d="M344.588,483.446 C344.588,494.888 335.311,504.163 323.871,504.163 L158.133,504.163 C146.69,504.163 137.416,494.887 137.416,483.446 L137.416,464.109 C137.416,452.667 146.691,443.392 158.133,443.392 L323.87,443.392 C335.311,443.392 344.587,452.669 344.587,464.109 L344.587,483.446 L344.588,483.446 Z" id="Shape" fill="#759B84"></path>
            <path d="M181.161,483.446 L181.161,464.109 C181.161,452.667 190.436,443.392 201.878,443.392 L158.133,443.392 C146.69,443.392 137.416,452.669 137.416,464.109 L137.416,483.446 C137.416,494.888 146.691,504.163 158.133,504.163 L201.878,504.163 C190.435,504.163 181.161,494.888 181.161,483.446 Z" id="Shape" fill="#000000" opacity="0.1"></path>
            <path d="M184.287,473.778 C87.437,473.778 8.648,394.986 8.648,298.14 C8.648,291.403 14.109,285.943 20.846,285.943 L461.161,285.943 C467.895,285.943 473.357,291.404 473.357,298.14 C473.357,394.986 394.568,473.778 297.718,473.778 L184.287,473.778 Z" id="Shape" fill="#78B591"></path>
            <path d="M55.01,298.141 C55.01,291.403 60.472,285.944 67.208,285.944 L20.846,285.944 C14.11,285.944 8.648,291.405 8.648,298.141 C8.648,394.987 87.436,473.779 184.287,473.779 L230.649,473.779 C133.799,473.778 55.01,394.987 55.01,298.141 Z" id="Shape" fill="#000000" opacity="0.1"></path>
            <g id="Group" transform="translate(9.000000, 318.000000)" fill="#609174">
                <path d="M260.819,0.532 L2.305,0.532 C1.809,0.532 1.325,0.583 0.854,0.672 C1.468,5.923 2.31,11.105 3.377,16.205 L260.819,16.205 C265.148,16.205 268.656,12.696 268.656,8.368 C268.656,4.041 265.148,0.532 260.819,0.532 Z" id="Shape"></path>
                <path d="M92.376,37.964 L12.833,37.964 C11.709,37.964 10.641,38.205 9.675,38.632 C11.486,43.747 13.528,48.753 15.788,53.638 L92.377,53.638 C96.706,53.638 100.214,50.129 100.214,45.801 C100.212,41.472 96.705,37.964 92.376,37.964 Z" id="Shape"></path>
            </g>
            <g id="Group" transform="translate(78.000000, 0.000000)" fill="#000000" fill-opacity="0.4">
                <path d="M98.958,162.251 L42.966,162.251 C19.561,162.251 0.52,143.21 0.52,119.805 C0.52,96.401 19.561,77.36 42.966,77.36 L68.73,77.36 C73.059,77.36 76.567,80.869 76.567,85.197 C76.567,89.525 73.059,93.034 68.73,93.034 L42.966,93.034 C28.204,93.034 16.194,105.044 16.194,119.805 C16.194,134.567 28.204,146.577 42.966,146.577 L98.958,146.577 C103.287,146.577 106.795,150.086 106.795,154.414 C106.795,158.742 103.287,162.251 98.958,162.251 Z" id="Shape"></path>
                <path d="M125.301,93.035 L95.073,93.035 C90.744,93.035 87.236,89.526 87.236,85.198 C87.236,80.87 90.744,77.361 95.073,77.361 L125.301,77.361 C142.308,77.361 156.144,63.524 156.144,46.518 C156.144,29.512 142.309,15.674 125.301,15.674 L91.171,15.674 C86.842,15.674 83.334,12.165 83.334,7.837 C83.334,3.509 86.843,0 91.172,0 L125.302,0 C150.951,0 171.819,20.868 171.819,46.518 C171.817,72.167 150.95,93.035 125.301,93.035 Z" id="Shape"></path>
            </g>
            <path d="M370.229,103.243 L308.002,103.243 C295.033,103.243 284.48,92.691 284.48,79.721 C284.48,66.751 295.032,56.2 308.002,56.2 L329.637,56.2 C333.966,56.2 337.474,52.691 337.474,48.363 C337.474,44.035 333.966,40.526 329.637,40.526 L308.002,40.526 C286.389,40.526 268.807,58.108 268.807,79.72 C268.807,101.333 286.39,118.915 308.002,118.915 L370.229,118.915 C380.395,118.915 388.667,127.186 388.667,137.352 L388.667,154.412 C388.667,158.74 392.175,162.249 396.504,162.249 C400.833,162.249 404.341,158.74 404.341,154.412 L404.341,137.352 C404.339,118.546 389.038,103.243 370.229,103.243 Z" id="Shape" fill="#000000" opacity="0.2"></path>
            <path d="M461.16,278.106 L454.479,278.106 C454.571,277.389 454.633,276.66 454.633,275.908 C454.635,267.902 449.099,261.925 444.651,257.122 C442.32,254.605 439.909,252.003 439.066,249.967 C438.305,248.13 438.196,244.729 438.088,241.44 C437.872,234.78 437.601,226.491 431.73,220.617 C425.859,214.746 417.569,214.476 410.908,214.259 C407.619,214.151 404.218,214.042 402.381,213.281 C400.344,212.438 397.742,210.028 395.224,207.698 C390.421,203.251 384.443,197.715 376.437,197.716 C368.439,197.716 362.464,203.249 357.662,207.695 C355.144,210.027 352.539,212.439 350.499,213.282 C348.663,214.042 345.263,214.151 341.975,214.258 C338.558,214.369 334.717,214.501 330.989,215.391 C318.464,199.12 298.807,188.607 276.733,188.607 C252.446,188.607 231.082,201.328 218.929,220.45 C209.194,215.122 198.032,212.088 186.172,212.088 C182.781,212.088 179.449,212.345 176.189,212.824 C172.235,198.866 159.389,188.608 144.181,188.608 C130.854,188.608 119.341,196.489 114.033,207.831 C106.386,204.867 98.081,203.233 89.397,203.233 C56.243,203.233 28.528,226.926 22.272,258.267 C17.519,263.94 14.623,271.213 14.515,279.151 C6.563,281.807 0.808,289.311 0.808,298.145 C0.808,343.653 17.654,387.331 48.242,421.135 C51.149,424.346 56.103,424.592 59.312,421.688 C62.521,418.784 62.77,413.828 59.865,410.619 C31.893,379.699 16.486,339.755 16.486,298.142 C16.486,295.738 18.442,293.782 20.847,293.782 L461.162,293.782 C463.566,293.782 465.521,295.738 465.521,298.142 C465.521,390.668 390.245,465.943 297.719,465.943 L184.287,465.943 C146.826,465.943 111.37,453.819 81.747,430.88 C78.326,428.23 73.402,428.855 70.754,432.278 C68.104,435.7 68.729,440.623 72.152,443.272 C89.652,456.823 109.016,466.915 129.581,473.338 L129.581,483.446 C129.581,499.191 142.39,512 158.135,512 L323.871,512 C339.616,512 352.425,499.191 352.425,483.446 L352.425,473.284 C426.958,449.953 481.193,380.263 481.193,298.139 C481.193,287.093 472.207,278.106 461.16,278.106 Z M342.486,229.921 C347.174,229.768 352.024,229.612 356.493,227.763 C361.129,225.846 364.945,222.312 368.313,219.194 C370.96,216.744 374.583,213.387 376.442,213.387 C378.303,213.387 381.929,216.743 384.577,219.196 C387.943,222.312 391.756,225.844 396.387,227.76 C400.857,229.612 405.709,229.769 410.399,229.922 C414.301,230.049 419.157,230.207 420.648,231.697 C422.139,233.189 422.297,238.046 422.423,241.947 C422.576,246.638 422.733,251.488 424.584,255.959 C426.501,260.591 430.034,264.405 433.15,267.771 C435.602,270.418 438.959,274.042 438.959,275.909 C438.959,276.495 438.625,277.256 438.092,278.106 L423.84,278.106 C423.874,277.376 423.901,276.643 423.901,275.903 C423.901,249.735 402.611,228.446 376.443,228.446 C363.634,228.446 352.011,233.565 343.466,241.844 C342.535,237.758 341.249,233.808 339.62,230.034 C340.59,229.983 341.564,229.951 342.486,229.921 Z M369.848,278.106 C369.615,277.412 369.484,276.673 369.484,275.903 C369.484,272.067 372.604,268.946 376.44,268.946 C380.278,268.946 383.4,272.067 383.4,275.903 C383.4,276.673 383.269,277.412 383.036,278.106 L369.848,278.106 Z M376.442,253.274 C363.965,253.274 353.813,263.426 353.813,275.904 C353.813,276.648 353.858,277.381 353.929,278.107 L345.191,278.107 L345.191,270.142 C347.912,255.359 360.885,244.121 376.443,244.121 C393.969,244.121 408.228,258.38 408.228,275.905 C408.228,276.647 408.188,277.379 408.137,278.108 L398.961,278.108 C399.032,277.383 399.077,276.649 399.077,275.905 C399.075,263.425 388.923,253.274 376.442,253.274 Z M276.736,204.278 C305.841,204.278 329.518,227.955 329.518,257.058 L329.517,278.106 L320.944,278.106 L320.944,257.058 C320.944,232.682 301.113,212.85 276.736,212.85 C260.041,212.85 245.481,222.153 237.962,235.847 C236.025,233.605 233.952,231.486 231.743,229.511 C241.032,214.388 257.723,204.278 276.736,204.278 Z M281.024,278.106 L272.451,278.106 L272.451,257.058 C272.451,254.694 274.374,252.771 276.737,252.771 C279.102,252.771 281.025,254.695 281.025,257.058 L281.025,278.106 L281.024,278.106 Z M276.736,237.097 C265.731,237.097 256.776,246.052 256.776,257.058 L256.776,278.106 L254.565,278.106 C254.245,268.993 252.137,260.334 248.579,252.458 C250.786,238.905 262.57,228.524 276.736,228.524 C292.47,228.524 305.27,241.325 305.27,257.058 L305.27,278.106 L296.698,278.106 L296.698,257.058 C296.697,246.052 287.742,237.097 276.736,237.097 Z M238.891,278.106 L230.309,278.106 C229.043,254.857 209.733,236.33 186.175,236.33 C162.616,236.33 143.305,254.856 142.039,278.106 L133.457,278.106 C134.733,250.129 157.888,227.758 186.175,227.758 C214.463,227.757 237.617,250.129 238.891,278.106 Z M186.175,260.578 C175.992,260.578 167.582,268.245 166.377,278.106 L157.752,278.106 C158.99,263.507 171.26,252.003 186.174,252.003 C201.088,252.003 213.357,263.506 214.594,278.106 L205.968,278.106 C204.765,268.245 196.357,260.578 186.175,260.578 Z M189.697,278.106 L182.651,278.106 C183.425,276.988 184.715,276.251 186.175,276.251 C187.635,276.251 188.923,276.988 189.697,278.106 Z M109.361,278.106 L109.361,271.682 C109.361,260.676 100.407,251.721 89.401,251.721 C83.168,251.721 77.616,254.606 73.957,259.096 C72.178,256.829 70.114,254.794 67.814,253.054 C73.05,246.993 80.782,243.147 89.401,243.147 C105.134,243.147 117.934,255.947 117.934,271.681 L117.934,275.406 C117.868,276.301 117.815,277.2 117.784,278.104 L109.361,278.104 L109.361,278.106 Z M47.781,262.001 C56.982,262.001 64.543,269.1 65.306,278.106 L30.257,278.106 C31.019,269.1 38.579,262.001 47.781,262.001 Z M93.687,278.106 L85.114,278.106 L85.114,271.682 C85.114,269.318 87.038,267.395 89.402,267.395 C91.766,267.395 93.688,269.319 93.688,271.682 L93.688,278.106 L93.687,278.106 Z M144.185,204.278 C152.153,204.278 158.892,209.605 161.053,216.882 C154.138,219.621 147.77,223.446 142.168,228.161 C138.059,223.186 133.268,218.796 127.931,215.144 C130.58,208.771 136.865,204.278 144.185,204.278 Z M89.401,218.902 C106.464,218.902 121.657,227.046 131.31,239.646 C129.473,242.105 127.805,244.696 126.307,247.394 C118.395,235.405 104.81,227.475 89.401,227.475 C74.278,227.475 60.914,235.114 52.94,246.73 C51.258,246.467 49.535,246.328 47.78,246.328 C46.136,246.328 44.522,246.452 42.942,246.683 C51.867,230.16 69.339,218.902 89.401,218.902 Z M336.751,483.446 C336.751,490.548 330.973,496.326 323.871,496.326 L158.133,496.326 C151.031,496.326 145.253,490.548 145.253,483.446 L145.253,477.468 C157.939,480.21 170.996,481.614 184.286,481.614 L297.717,481.614 C311.109,481.614 324.168,480.158 336.751,477.421 L336.751,483.446 Z" id="Shape" fill="#000000"></path>
        </g>
    </g>
</svg>